<svg width="24" height="24" viewBox="0 0 24 24" fill="none" xmlns="http://www.w3.org/2000/svg">
<path d="M13.4142 14.5858C12.6332 15.3668 11.3668 15.3668 10.5858 14.5858L7.70011 11.7001C7.31148 11.3115 7.30597 10.6831 7.68772 10.2877V10.2877C8.07906 9.8824 8.72672 9.87672 9.12511 10.2751L11 12.15V5C11 4.44772 11.4477 4 12 4V4C12.5523 4 13 4.44772 13 5V12.15L14.8749 10.2751C15.2733 9.87672 15.9209 9.8824 16.3123 10.2877V10.2877C16.694 10.6831 16.6885 11.3115 16.2999 11.7001L13.4142 14.5858ZM6 20C5.45 20 4.97917 19.8042 4.5875 19.4125C4.19583 19.0208 4 18.55 4 18V16C4 15.4477 4.44772 15 5 15V15C5.55228 15 6 15.4477 6 16V18H18V16C18 15.4477 18.4477 15 19 15V15C19.5523 15 20 15.4477 20 16V18C20 18.55 19.8042 19.0208 19.4125 19.4125C19.0208 19.8042 18.55 20 18 20H6Z" fill="#D4D4D4"/>
</svg>
